<svg width="800" height="800" viewBox="-400 -400 800 800" style="font-family: sans-serif; font-size: 10px;"><g><path d="M0,-100A100,100,0,1,1,-95.742,28.869L0,0Z" fill="#3498DB" stroke="#fff" stroke-width="1"><title>Commutative Algebra
83</title></path><path d="M-95.742,28.869A100,100,0,0,1,0,-100L0,0Z" fill="#E67E22" stroke="#fff" stroke-width="1"><title>Abstract Algebra
35</title></path><path d="M0,-200A200,200,0,0,1,169.547,106.084L84.773,53.042A100,100,0,0,0,0,-100Z" fill="#9B59B6" stroke="#fff" stroke-width="1"><title>Commutative Algebra / Ideal Theory
40</title></path><path d="M169.547,106.084A200,200,0,0,1,-72.832,186.267L-36.416,93.134A100,100,0,0,0,84.773,53.042Z" fill="#3498DB" stroke="#fff" stroke-width="1"><title>Commutative Algebra / Dimension Theory and Smoothness
26</title></path><path d="M-72.832,186.267A200,200,0,0,1,-191.484,57.738L-95.742,28.869A100,100,0,0,0,-36.416,93.134Z" fill="#27AE60" stroke="#fff" stroke-width="1"><title>Commutative Algebra / Other Topics
17</title></path><path d="M-191.484,57.738A200,200,0,0,1,-184.262,-77.765L-92.131,-38.882A100,100,0,0,0,-95.742,28.869Z" fill="#F1C40F" stroke="#fff" stroke-width="1"><title>Abstract Algebra / Field Theory
13</title></path><path d="M-184.262,-77.765A200,200,0,0,1,-127.649,-153.967L-63.824,-76.983A100,100,0,0,0,-92.131,-38.882Z" fill="#F39C12" stroke="#fff" stroke-width="1"><title>Abstract Algebra / Group Theory
9</title></path><path d="M-127.649,-153.967A200,200,0,0,1,0,-200L0,-100A100,100,0,0,0,-63.824,-76.983Z" fill="#E74C3C" stroke="#fff" stroke-width="1"><title>Abstract Algebra / Ring Theory
13</title></path><path d="M0,-400A400,400,0,0,1,184.437,-354.941L92.219,-177.47A200,200,0,0,0,0,-200Z" fill="#744389" stroke="#fff" stroke-width="1"><title>Commutative Algebra / Ideal Theory / Ideals and Modules
9</title></path><path d="M184.437,-354.941A400,400,0,0,1,286.583,-279.053L143.291,-139.526A200,200,0,0,0,92.219,-177.47Z" fill="#814a97" stroke="#fff" stroke-width="1"><title>Commutative Algebra / Ideal Theory / Localization and Decomposition of Ideals
6</title></path><path d="M286.583,-279.053A400,400,0,0,1,393.074,-74.115L196.537,-37.058A200,200,0,0,0,143.291,-139.526Z" fill="#8d51a6" stroke="#fff" stroke-width="1"><title>Commutative Algebra / Ideal Theory / Integral Dependence and the Nullstellensatz
11</title></path><path d="M393.074,-74.115A400,400,0,0,1,399.858,-10.648L199.929,-5.324A200,200,0,0,0,196.537,-37.058Z" fill="#9958b4" stroke="#fff" stroke-width="1"><title>Commutative Algebra / Ideal Theory / Noetherian rings and Chain Conditions
3</title></path><path d="M399.858,-10.648A400,400,0,0,1,398.725,31.914L199.362,15.957A200,200,0,0,0,199.929,-5.324Z" fill="#a65fc3" stroke="#fff" stroke-width="1"><title>Commutative Algebra / Ideal Theory / Dedekind Domains and DVRs
2</title></path><path d="M398.725,31.914A400,400,0,0,1,339.094,212.168L169.547,106.084A200,200,0,0,0,199.362,15.957Z" fill="#b266d1" stroke="#fff" stroke-width="1"><title>Commutative Algebra / Ideal Theory / Tensor Product and Flatness
9</title></path><path d="M339.094,212.168A400,400,0,0,1,286.583,279.053L143.291,139.526A200,200,0,0,0,169.547,106.084Z" fill="#2772a4" stroke="#fff" stroke-width="1"><title>Commutative Algebra / Dimension Theory and Smoothness / Smoothness and the Module of Differentials
4</title></path><path d="M286.583,279.053A400,400,0,0,1,165.285,364.254L82.642,182.127A200,200,0,0,0,143.291,139.526Z" fill="#2b7eb6" stroke="#fff" stroke-width="1"><title>Commutative Algebra / Dimension Theory and Smoothness / Heights and Dimensions
7</title></path><path d="M165.285,364.254A400,400,0,0,1,42.517,397.734L21.259,198.867A200,200,0,0,0,82.642,182.127Z" fill="#2f8ac7" stroke="#fff" stroke-width="1"><title>Commutative Algebra / Dimension Theory and Smoothness / Regular Sequences and Regular Local Rings
6</title></path><path d="M42.517,397.734A400,400,0,0,1,-145.664,372.534L-72.832,186.267A200,200,0,0,0,21.259,198.867Z" fill="#3396d9" stroke="#fff" stroke-width="1"><title>Commutative Algebra / Dimension Theory and Smoothness / Depth, Cohen-Macaulay Rings and Gorenstein rings
9</title></path><path d="M-145.664,372.534A400,400,0,0,1,-221.12,333.326L-110.56,166.663A200,200,0,0,0,-72.832,186.267Z" fill="#1d8348" stroke="#fff" stroke-width="1"><title>Commutative Algebra / Other Topics / Completions and Hensel's lemma
4</title></path><path d="M-221.12,333.326A400,400,0,0,1,-271.325,293.91L-135.662,146.955A200,200,0,0,0,-110.56,166.663Z" fill="#209050" stroke="#fff" stroke-width="1"><title>Commutative Algebra / Other Topics / Algebraic Number Theory and Valuation Theory
3</title></path><path d="M-271.325,293.91A400,400,0,0,1,-349.905,193.82L-174.953,96.91A200,200,0,0,0,-135.662,146.955Z" fill="#239e57" stroke="#fff" stroke-width="1"><title>Commutative Algebra / Other Topics / Algebraic and Arithmetic Dynamics
6</title></path><path d="M-349.905,193.82A400,400,0,0,1,-376.28,135.696L-188.14,67.848A200,200,0,0,0,-174.953,96.91Z" fill="#27ac5f" stroke="#fff" stroke-width="1"><title>Commutative Algebra / Other Topics / Homological Methods
3</title></path><path d="M-376.28,135.696A400,400,0,0,1,-382.969,115.477L-191.484,57.738A200,200,0,0,0,-188.14,67.848Z" fill="#2aba67" stroke="#fff" stroke-width="1"><title>Commutative Algebra / Other Topics / Noncommutative Algebras
1</title></path><path d="M-382.969,115.477A400,400,0,0,1,-388.572,94.931L-194.286,47.465A200,200,0,0,0,-191.484,57.738Z" fill="#b5930b" stroke="#fff" stroke-width="1"><title>Abstract Algebra / Field Theory / Field Extensions
1</title></path><path d="M-388.572,94.931A400,400,0,0,1,-376.28,-135.696L-188.14,-67.848A200,200,0,0,0,-194.286,47.465Z" fill="#c8a30c" stroke="#fff" stroke-width="1"><title>Abstract Algebra / Field Theory / Galois theory
11</title></path><path d="M-376.28,-135.696A400,400,0,0,1,-368.525,-155.53L-184.262,-77.765A200,200,0,0,0,-188.14,-67.848Z" fill="#dbb20e" stroke="#fff" stroke-width="1"><title>Abstract Algebra / Field Theory / Explicit Computations
1</title></path><path d="M-368.525,-155.53A400,400,0,0,1,-339.094,-212.168L-169.547,-106.084A200,200,0,0,0,-184.262,-77.765Z" fill="#b6750e" stroke="#fff" stroke-width="1"><title>Abstract Algebra / Group Theory / Subgroups and Quotient groups
3</title></path><path d="M-339.094,-212.168A400,400,0,0,1,-271.325,-293.91L-135.662,-146.955A200,200,0,0,0,-169.547,-106.084Z" fill="#ca810f" stroke="#fff" stroke-width="1"><title>Abstract Algebra / Group Theory / Group Actions and Sylow theorems
5</title></path><path d="M-271.325,-293.91A400,400,0,0,1,-255.298,-307.934L-127.649,-153.967A200,200,0,0,0,-135.662,-146.955Z" fill="#dd8e10" stroke="#fff" stroke-width="1"><title>Abstract Algebra / Group Theory / p-Groups, Nilpotent Groups and Solvable Groups
1</title></path><path d="M-255.298,-307.934A400,400,0,0,1,-184.437,-354.941L-92.219,-177.47A200,200,0,0,0,-127.649,-153.967Z" fill="#ad392d" stroke="#fff" stroke-width="1"><title>Abstract Algebra / Ring Theory / Basic Definitions and Examples
4</title></path><path d="M-184.437,-354.941A400,400,0,0,1,-105.241,-385.907L-52.621,-192.954A200,200,0,0,0,-92.219,-177.47Z" fill="#c03f32" stroke="#fff" stroke-width="1"><title>Abstract Algebra / Ring Theory / PID, ED and UFD
4</title></path><path d="M-105.241,-385.907A400,400,0,0,1,0,-400L0,-200A200,200,0,0,0,-52.621,-192.954Z" fill="#d24537" stroke="#fff" stroke-width="1"><title>Abstract Algebra / Ring Theory / Polynomials
5</title></path><text transform="rotate(36.61016949152541) translate(50,0) rotate(270)" dy="0.35em" text-anchor="middle" font-size="16px" style="pointer-events: none; fill: rgb(255, 255, 255); font-weight: bold; text-shadow: rgba(0, 0, 0, 0.8) 1px 1px 2px;"><tspan x="0" dy="0">Commutative</tspan><tspan x="0" dy="1.2em">Algebra</tspan></text><text transform="rotate(216.61016949152543) translate(50,0) rotate(90)" dy="0.35em" text-anchor="middle" font-size="16px" style="pointer-events: none; fill: rgb(255, 255, 255); font-weight: bold; text-shadow: rgba(0, 0, 0, 0.8) 1px 1px 2px;"><tspan x="0" dy="0">Abstract</tspan><tspan x="0" dy="1.2em">Algebra</tspan></text><text transform="rotate(-28.98305084745764) translate(150,0) rotate(90)" dy="0.35em" text-anchor="middle" font-size="14px" style="pointer-events: none; fill: rgb(255, 255, 255); font-weight: bold; text-shadow: rgba(0, 0, 0, 0.8) 1px 1px 2px;">Ideal Theory</text><text transform="rotate(71.69491525423723) translate(150,0) rotate(270)" dy="0.35em" text-anchor="middle" font-size="14px" style="pointer-events: none; fill: rgb(255, 255, 255); font-weight: bold; text-shadow: rgba(0, 0, 0, 0.8) 1px 1px 2px;"><tspan x="0" dy="0">Dimension Theory</tspan><tspan x="0" dy="1.2em">and Smoothness</tspan></text><text transform="rotate(137.2881355932203) translate(150,0) rotate(270)" dy="0.35em" text-anchor="middle" font-size="14px" style="pointer-events: none; fill: rgb(255, 255, 255); font-weight: bold; text-shadow: rgba(0, 0, 0, 0.8) 1px 1px 2px;">Other Topics</text><text transform="rotate(183.05084745762713) translate(150,0) rotate(270)" dy="0.35em" text-anchor="middle" font-size="14px" style="pointer-events: none; fill: rgb(255, 255, 255); font-weight: bold; text-shadow: rgba(0, 0, 0, 0.8) 1px 1px 2px;">Field Theory</text><text transform="rotate(216.61016949152543) translate(150,0) rotate(180)" dy="0.35em" text-anchor="middle" font-size="14px" style="pointer-events: none; fill: rgb(255, 255, 255); font-weight: bold; text-shadow: rgba(0, 0, 0, 0.8) 1px 1px 2px;">Group Theory</text><text transform="rotate(250.16949152542378) translate(150,0) rotate(90)" dy="0.35em" text-anchor="middle" font-size="14px" style="pointer-events: none; fill: rgb(255, 255, 255); font-weight: bold; text-shadow: rgba(0, 0, 0, 0.8) 1px 1px 2px;">Ring Theory</text><text transform="rotate(-76.27118644067797) translate(300,0) rotate(0)" dy="0.35em" text-anchor="middle" font-size="15px" style="pointer-events: none; fill: rgb(255, 255, 255); font-weight: bold; text-shadow: rgba(0, 0, 0, 0.8) 1px 1px 2px;">Ideals and Modules</text><text transform="rotate(-53.38983050847458) translate(300,0) rotate(0)" dy="0.35em" text-anchor="middle" font-size="8px" style="pointer-events: none; fill: rgb(255, 255, 255); font-weight: bold; text-shadow: rgba(0, 0, 0, 0.8) 1px 1px 2px;">Localization and Decomposition of Ideals</text><text transform="rotate(-27.457627118644083) translate(300,0) rotate(0)" dy="0.35em" text-anchor="middle" font-size="9.5625px" style="pointer-events: none; fill: rgb(255, 255, 255); font-weight: bold; text-shadow: rgba(0, 0, 0, 0.8) 1px 1px 2px;"><tspan x="0" dy="0">Integral Dependence and</tspan><tspan x="0" dy="1.1em">the Nullstellensatz</tspan></text><text transform="rotate(-6.101694915254242) translate(300,0) rotate(0)" dy="0.35em" text-anchor="middle" font-size="8px" style="pointer-events: none; fill: rgb(255, 255, 255); font-weight: bold; text-shadow: rgba(0, 0, 0, 0.8) 1px 1px 2px;">Noetherian rings and Chain Conditions</text><text transform="rotate(1.5254237288135357) translate(300,0) rotate(0)" dy="0.35em" text-anchor="middle" font-size="8px" style="pointer-events: none; fill: rgb(255, 255, 255); font-weight: bold; text-shadow: rgba(0, 0, 0, 0.8) 1px 1px 2px;">Dedekind Domains and DVRs</text><text transform="rotate(18.3050847457627) translate(300,0) rotate(0)" dy="0.35em" text-anchor="middle" font-size="12.75px" style="pointer-events: none; fill: rgb(255, 255, 255); font-weight: bold; text-shadow: rgba(0, 0, 0, 0.8) 1px 1px 2px;">Tensor Product and Flatness</text><text transform="rotate(38.13559322033896) translate(300,0) rotate(0)" dy="0.35em" text-anchor="middle" font-size="8px" style="pointer-events: none; fill: rgb(255, 255, 255); font-weight: bold; text-shadow: rgba(0, 0, 0, 0.8) 1px 1px 2px;"><tspan x="0" dy="0">Smoothness and the</tspan><tspan x="0" dy="1.1em">Module of Differentials</tspan></text><text transform="rotate(54.91525423728811) translate(300,0) rotate(0)" dy="0.35em" text-anchor="middle" font-size="15px" style="pointer-events: none; fill: rgb(255, 255, 255); font-weight: bold; text-shadow: rgba(0, 0, 0, 0.8) 1px 1px 2px;">Heights and Dimensions</text><text transform="rotate(74.74576271186436) translate(300,0) rotate(0)" dy="0.35em" text-anchor="middle" font-size="9.5625px" style="pointer-events: none; fill: rgb(255, 255, 255); font-weight: bold; text-shadow: rgba(0, 0, 0, 0.8) 1px 1px 2px;"><tspan x="0" dy="0">Regular Sequences and</tspan><tspan x="0" dy="1.1em">Regular Local Rings</tspan></text><text transform="rotate(97.62711864406776) translate(300,0) rotate(180)" dy="0.35em" text-anchor="middle" font-size="9.5625px" style="pointer-events: none; fill: rgb(255, 255, 255); font-weight: bold; text-shadow: rgba(0, 0, 0, 0.8) 1px 1px 2px;"><tspan x="0" dy="0">Depth, Cohen-Macaulay Rings</tspan><tspan x="0" dy="1.1em">and Gorenstein rings</tspan></text><text transform="rotate(117.45762711864404) translate(300,0) rotate(180)" dy="0.35em" text-anchor="middle" font-size="9.5625px" style="pointer-events: none; fill: rgb(255, 255, 255); font-weight: bold; text-shadow: rgba(0, 0, 0, 0.8) 1px 1px 2px;">Completions and Hensel's lemma</text><text transform="rotate(128.1355932203389) translate(300,0) rotate(180)" dy="0.35em" text-anchor="middle" font-size="8px" style="pointer-events: none; fill: rgb(255, 255, 255); font-weight: bold; text-shadow: rgba(0, 0, 0, 0.8) 1px 1px 2px;"><tspan x="0" dy="0">Algebraic Number Theory</tspan><tspan x="0" dy="1.1em">and Valuation Theory</tspan></text><text transform="rotate(141.86440677966098) translate(300,0) rotate(180)" dy="0.35em" text-anchor="middle" font-size="12.75px" style="pointer-events: none; fill: rgb(255, 255, 255); font-weight: bold; text-shadow: rgba(0, 0, 0, 0.8) 1px 1px 2px;"><tspan x="0" dy="0">Algebraic and</tspan><tspan x="0" dy="1.1em">Arithmetic Dynamics</tspan></text><text transform="rotate(155.59322033898306) translate(300,0) rotate(180)" dy="0.35em" text-anchor="middle" font-size="8px" style="pointer-events: none; fill: rgb(255, 255, 255); font-weight: bold; text-shadow: rgba(0, 0, 0, 0.8) 1px 1px 2px;">Homological Methods</text><text transform="rotate(161.6949152542373) translate(300,0) rotate(180)" dy="0.35em" text-anchor="middle" font-size="8px" style="pointer-events: none; fill: rgb(255, 255, 255); font-weight: bold; text-shadow: rgba(0, 0, 0, 0.8) 1px 1px 2px;">Noncommutative Algebras</text><text transform="rotate(164.7457627118644) translate(300,0) rotate(180)" dy="0.35em" text-anchor="middle" font-size="8px" style="pointer-events: none; fill: rgb(255, 255, 255); font-weight: bold; text-shadow: rgba(0, 0, 0, 0.8) 1px 1px 2px;">Field Extensions</text><text transform="rotate(183.05084745762713) translate(300,0) rotate(180)" dy="0.35em" text-anchor="middle" font-size="15px" style="pointer-events: none; fill: rgb(255, 255, 255); font-weight: bold; text-shadow: rgba(0, 0, 0, 0.8) 1px 1px 2px;">Galois theory</text><text transform="rotate(201.35593220338984) translate(300,0) rotate(180)" dy="0.35em" text-anchor="middle" font-size="8px" style="pointer-events: none; fill: rgb(255, 255, 255); font-weight: bold; text-shadow: rgba(0, 0, 0, 0.8) 1px 1px 2px;">Explicit Computations</text><text transform="rotate(207.45762711864404) translate(300,0) rotate(180)" dy="0.35em" text-anchor="middle" font-size="8px" style="pointer-events: none; fill: rgb(255, 255, 255); font-weight: bold; text-shadow: rgba(0, 0, 0, 0.8) 1px 1px 2px;">Subgroups and Quotient groups</text><text transform="rotate(219.66101694915255) translate(300,0) rotate(180)" dy="0.35em" text-anchor="middle" font-size="12.75px" style="pointer-events: none; fill: rgb(255, 255, 255); font-weight: bold; text-shadow: rgba(0, 0, 0, 0.8) 1px 1px 2px;"><tspan x="0" dy="0">Group Actions</tspan><tspan x="0" dy="1.1em">and Sylow theorems</tspan></text><text transform="rotate(228.81355932203394) translate(300,0) rotate(180)" dy="0.35em" text-anchor="middle" font-size="8px" style="pointer-events: none; fill: rgb(255, 255, 255); font-weight: bold; text-shadow: rgba(0, 0, 0, 0.8) 1px 1px 2px;">p-Groups, Nilpotent Groups and Solvable Groups</text><text transform="rotate(236.44067796610165) translate(300,0) rotate(180)" dy="0.35em" text-anchor="middle" font-size="9.5625px" style="pointer-events: none; fill: rgb(255, 255, 255); font-weight: bold; text-shadow: rgba(0, 0, 0, 0.8) 1px 1px 2px;">Basic Definitions and Examples</text><text transform="rotate(248.6440677966101) translate(300,0) rotate(180)" dy="0.35em" text-anchor="middle" font-size="11.25px" style="pointer-events: none; fill: rgb(255, 255, 255); font-weight: bold; text-shadow: rgba(0, 0, 0, 0.8) 1px 1px 2px;">PID, ED and UFD</text><text transform="rotate(262.37288135593224) translate(300,0) rotate(180)" dy="0.35em" text-anchor="middle" font-size="15px" style="pointer-events: none; fill: rgb(255, 255, 255); font-weight: bold; text-shadow: rgba(0, 0, 0, 0.8) 1px 1px 2px;">Polynomials</text></g></svg>