<svg width="800" height="800" viewBox="-400 -400 800 800" style="font-family: sans-serif; font-size: 10px;"><g><path d="M0,-100A100,100,0,1,1,-24.146,97.041L0,0Z" fill="#3498DB" stroke="#fff" stroke-width="1"><title>Commutative Algebra
118</title></path><path d="M-24.146,97.041A100,100,0,0,1,0,-100L0,0Z" fill="#E67E22" stroke="#fff" stroke-width="1"><title>Abstract Algebra
101</title></path><path d="M0,-200A200,200,0,0,1,195.689,41.302L97.844,20.651A100,100,0,0,0,0,-100Z" fill="#9B59B6" stroke="#fff" stroke-width="1"><title>Commutative Algebra / Ideal Theory
62</title></path><path d="M195.689,41.302A200,200,0,0,1,80.823,182.942L40.411,91.471A100,100,0,0,0,97.844,20.651Z" fill="#3498DB" stroke="#fff" stroke-width="1"><title>Commutative Algebra / Dimension Theory and Smoothness
33</title></path><path d="M80.823,182.942A200,200,0,0,1,-48.292,194.082L-24.146,97.041A100,100,0,0,0,40.411,91.471Z" fill="#27AE60" stroke="#fff" stroke-width="1"><title>Commutative Algebra / Other Topics
23</title></path><path d="M-48.292,194.082A200,200,0,0,1,-70.198,187.276L-35.099,93.638A100,100,0,0,0,-24.146,97.041Z" fill="#B4DC0D" stroke="#fff" stroke-width="1"><title>Abstract Algebra / Other Topics
4</title></path><path d="M-70.198,187.276A200,200,0,0,1,-198.844,-21.476L-99.422,-10.738A100,100,0,0,0,-35.099,93.638Z" fill="#F1C40F" stroke="#fff" stroke-width="1"><title>Abstract Algebra / Field Theory
46</title></path><path d="M-198.844,-21.476A200,200,0,0,1,-127.086,-154.431L-63.543,-77.216A100,100,0,0,0,-99.422,-10.738Z" fill="#F39C12" stroke="#fff" stroke-width="1"><title>Abstract Algebra / Group Theory
27</title></path><path d="M-127.086,-154.431A200,200,0,0,1,0,-200L0,-100A100,100,0,0,0,-63.543,-77.216Z" fill="#E74C3C" stroke="#fff" stroke-width="1"><title>Abstract Algebra / Ring Theory
24</title></path><path d="M0,-400A400,400,0,0,1,156.38,-368.165L78.19,-184.082A200,200,0,0,0,0,-200Z" fill="#744389" stroke="#fff" stroke-width="1"><title>Commutative Algebra / Ideal Theory / Ideals and Modules
14</title></path><path d="M156.38,-368.165A400,400,0,0,1,245.208,-316.027L122.604,-158.013A200,200,0,0,0,78.19,-184.082Z" fill="#814a97" stroke="#fff" stroke-width="1"><title>Commutative Algebra / Ideal Theory / Localization and Decomposition of Ideals
9</title></path><path d="M245.208,-316.027A400,400,0,0,1,369.277,-153.736L184.638,-76.868A200,200,0,0,0,122.604,-158.013Z" fill="#8d51a6" stroke="#fff" stroke-width="1"><title>Commutative Algebra / Ideal Theory / Integral Dependence and the Nullstellensatz
18</title></path><path d="M369.277,-153.736A400,400,0,0,1,384.452,-110.439L192.226,-55.219A200,200,0,0,0,184.638,-76.868Z" fill="#9958b4" stroke="#fff" stroke-width="1"><title>Commutative Algebra / Ideal Theory / Noetherian rings and Chain Conditions
4</title></path><path d="M384.452,-110.439A400,400,0,0,1,397.687,-42.953L198.844,-21.476A200,200,0,0,0,192.226,-55.219Z" fill="#a65fc3" stroke="#fff" stroke-width="1"><title>Commutative Algebra / Ideal Theory / Dedekind Domains and DVRs
6</title></path><path d="M397.687,-42.953A400,400,0,0,1,391.378,82.603L195.689,41.302A200,200,0,0,0,198.844,-21.476Z" fill="#b266d1" stroke="#fff" stroke-width="1"><title>Commutative Algebra / Ideal Theory / Tensor Product and Flatness
11</title></path><path d="M391.378,82.603A400,400,0,0,1,379.345,126.877L189.672,63.438A200,200,0,0,0,195.689,41.302Z" fill="#2772a4" stroke="#fff" stroke-width="1"><title>Commutative Algebra / Dimension Theory and Smoothness / Smoothness and the Module of Differentials
4</title></path><path d="M379.345,126.877A400,400,0,0,1,334.37,219.537L167.185,109.769A200,200,0,0,0,189.672,63.438Z" fill="#2b7eb6" stroke="#fff" stroke-width="1"><title>Commutative Algebra / Dimension Theory and Smoothness / Heights and Dimensions
9</title></path><path d="M334.37,219.537A400,400,0,0,1,249.716,312.477L124.858,156.238A200,200,0,0,0,167.185,109.769Z" fill="#2f8ac7" stroke="#fff" stroke-width="1"><title>Commutative Algebra / Dimension Theory and Smoothness / Regular Sequences and Regular Local Rings
11</title></path><path d="M249.716,312.477A400,400,0,0,1,161.646,365.883L80.823,182.942A200,200,0,0,0,124.858,156.238Z" fill="#3396d9" stroke="#fff" stroke-width="1"><title>Commutative Algebra / Dimension Theory and Smoothness / Depth, Cohen-Macaulay Rings and Gorenstein rings
9</title></path><path d="M161.646,365.883A400,400,0,0,1,107.678,385.234L53.839,192.617A200,200,0,0,0,80.823,182.942Z" fill="#1d8348" stroke="#fff" stroke-width="1"><title>Commutative Algebra / Other Topics / Completions and Hensel's lemma
5</title></path><path d="M107.678,385.234A400,400,0,0,1,17.209,399.63L8.604,199.815A200,200,0,0,0,53.839,192.617Z" fill="#209050" stroke="#fff" stroke-width="1"><title>Commutative Algebra / Other Topics / Algebraic Number Theory and Valuation Theory
8</title></path><path d="M17.209,399.63A400,400,0,0,1,-51.499,396.671L-25.75,198.335A200,200,0,0,0,8.604,199.815Z" fill="#239e57" stroke="#fff" stroke-width="1"><title>Commutative Algebra / Other Topics / Algebraic and Arithmetic Dynamics
6</title></path><path d="M-51.499,396.671A400,400,0,0,1,-85.408,390.775L-42.704,195.388A200,200,0,0,0,-25.75,198.335Z" fill="#27ac5f" stroke="#fff" stroke-width="1"><title>Commutative Algebra / Other Topics / Homological Methods
3</title></path><path d="M-85.408,390.775A400,400,0,0,1,-96.583,388.165L-48.292,194.082A200,200,0,0,0,-42.704,195.388Z" fill="#2aba67" stroke="#fff" stroke-width="1"><title>Commutative Algebra / Other Topics / Noncommutative Algebras
1</title></path><path d="M-96.583,388.165A400,400,0,0,1,-129.594,378.425L-64.797,189.212A200,200,0,0,0,-48.292,194.082Z" fill="#87a50a" stroke="#fff" stroke-width="1"><title>Abstract Algebra / Other Topics / Linear Algebra
3</title></path><path d="M-129.594,378.425A400,400,0,0,1,-140.396,374.552L-70.198,187.276A200,200,0,0,0,-64.797,189.212Z" fill="#95b70b" stroke="#fff" stroke-width="1"><title>Abstract Algebra / Other Topics / Elementary Number Theory
1</title></path><path d="M-140.396,374.552A400,400,0,0,1,-258.577,305.185L-129.289,152.592A200,200,0,0,0,-70.198,187.276Z" fill="#b5930b" stroke="#fff" stroke-width="1"><title>Abstract Algebra / Field Theory / Field Extensions
12</title></path><path d="M-258.577,305.185A400,400,0,0,1,-388.847,93.797L-194.424,46.898A200,200,0,0,0,-129.289,152.592Z" fill="#c8a30c" stroke="#fff" stroke-width="1"><title>Abstract Algebra / Field Theory / Galois theory
22</title></path><path d="M-388.847,93.797A400,400,0,0,1,-397.687,-42.953L-198.844,-21.476A200,200,0,0,0,-194.424,46.898Z" fill="#dbb20e" stroke="#fff" stroke-width="1"><title>Abstract Algebra / Field Theory / Explicit Computations
12</title></path><path d="M-397.687,-42.953A400,400,0,0,1,-390.153,-88.209L-195.076,-44.105A200,200,0,0,0,-198.844,-21.476Z" fill="#b6750e" stroke="#fff" stroke-width="1"><title>Abstract Algebra / Group Theory / Basic Axioms and Examples
4</title></path><path d="M-390.153,-88.209A400,400,0,0,1,-369.277,-153.736L-184.638,-76.868A200,200,0,0,0,-195.076,-44.105Z" fill="#ca810f" stroke="#fff" stroke-width="1"><title>Abstract Algebra / Group Theory / Subgroups and Quotient groups
6</title></path><path d="M-369.277,-153.736A400,400,0,0,1,-279.783,-285.869L-139.892,-142.935A200,200,0,0,0,-184.638,-76.868Z" fill="#dd8e10" stroke="#fff" stroke-width="1"><title>Abstract Algebra / Group Theory / Group Actions and Sylow theorems
14</title></path><path d="M-279.783,-285.869A400,400,0,0,1,-254.173,-308.863L-127.086,-154.431A200,200,0,0,0,-139.892,-142.935Z" fill="#f19a12" stroke="#fff" stroke-width="1"><title>Abstract Algebra / Group Theory / p-Groups, Nilpotent Groups and Solvable Groups
3</title></path><path d="M-254.173,-308.863A400,400,0,0,1,-197.51,-347.836L-98.755,-173.918A200,200,0,0,0,-127.086,-154.431Z" fill="#ad392d" stroke="#fff" stroke-width="1"><title>Abstract Algebra / Ring Theory / Basic Definitions and Examples
6</title></path><path d="M-197.51,-347.836A400,400,0,0,1,-145.755,-372.499L-72.877,-186.25A200,200,0,0,0,-98.755,-173.918Z" fill="#c03f32" stroke="#fff" stroke-width="1"><title>Abstract Algebra / Ring Theory / PID, ED and UFD
5</title></path><path d="M-145.755,-372.499A400,400,0,0,1,0,-400L0,-200A200,200,0,0,0,-72.877,-186.25Z" fill="#d24537" stroke="#fff" stroke-width="1"><title>Abstract Algebra / Ring Theory / Polynomials
13</title></path><text transform="rotate(6.986301369863028) translate(50,0) rotate(90)" dy="0.35em" text-anchor="middle" font-size="16px" style="pointer-events: none; fill: rgb(255, 255, 255); font-weight: bold; text-shadow: rgba(0, 0, 0, 0.8) 1px 1px 2px;"><tspan x="0" dy="0">Commutative</tspan><tspan x="0" dy="1.2em">Algebra</tspan></text><text transform="rotate(186.98630136986304) translate(50,0) rotate(90)" dy="0.35em" text-anchor="middle" font-size="16px" style="pointer-events: none; fill: rgb(255, 255, 255); font-weight: bold; text-shadow: rgba(0, 0, 0, 0.8) 1px 1px 2px;"><tspan x="0" dy="0">Abstract</tspan><tspan x="0" dy="1.2em">Algebra</tspan></text><text transform="rotate(-39.04109589041096) translate(150,0) rotate(90)" dy="0.35em" text-anchor="middle" font-size="14px" style="pointer-events: none; fill: rgb(255, 255, 255); font-weight: bold; text-shadow: rgba(0, 0, 0, 0.8) 1px 1px 2px;">Ideal Theory</text><text transform="rotate(39.04109589041096) translate(150,0) rotate(270)" dy="0.35em" text-anchor="middle" font-size="14px" style="pointer-events: none; fill: rgb(255, 255, 255); font-weight: bold; text-shadow: rgba(0, 0, 0, 0.8) 1px 1px 2px;"><tspan x="0" dy="0">Dimension Theory</tspan><tspan x="0" dy="1.2em">and Smoothness</tspan></text><text transform="rotate(85.06849315068493) translate(150,0) rotate(270)" dy="0.35em" text-anchor="middle" font-size="14px" style="pointer-events: none; fill: rgb(255, 255, 255); font-weight: bold; text-shadow: rgba(0, 0, 0, 0.8) 1px 1px 2px;">Other Topics</text><text transform="rotate(107.26027397260276) translate(150,0) rotate(180)" dy="0.35em" text-anchor="middle" font-size="10px" style="pointer-events: none; fill: rgb(255, 255, 255); font-weight: bold; text-shadow: rgba(0, 0, 0, 0.8) 1px 1px 2px;">Other Topics</text><text transform="rotate(148.35616438356163) translate(150,0) rotate(270)" dy="0.35em" text-anchor="middle" font-size="14px" style="pointer-events: none; fill: rgb(255, 255, 255); font-weight: bold; text-shadow: rgba(0, 0, 0, 0.8) 1px 1px 2px;">Field Theory</text><text transform="rotate(208.35616438356163) translate(150,0) rotate(90)" dy="0.35em" text-anchor="middle" font-size="14px" style="pointer-events: none; fill: rgb(255, 255, 255); font-weight: bold; text-shadow: rgba(0, 0, 0, 0.8) 1px 1px 2px;">Group Theory</text><text transform="rotate(250.27397260273978) translate(150,0) rotate(90)" dy="0.35em" text-anchor="middle" font-size="14px" style="pointer-events: none; fill: rgb(255, 255, 255); font-weight: bold; text-shadow: rgba(0, 0, 0, 0.8) 1px 1px 2px;">Ring Theory</text><text transform="rotate(-78.4931506849315) translate(300,0) rotate(0)" dy="0.35em" text-anchor="middle" font-size="15px" style="pointer-events: none; fill: rgb(255, 255, 255); font-weight: bold; text-shadow: rgba(0, 0, 0, 0.8) 1px 1px 2px;">Ideals and Modules</text><text transform="rotate(-59.58904109589041) translate(300,0) rotate(0)" dy="0.35em" text-anchor="middle" font-size="8px" style="pointer-events: none; fill: rgb(255, 255, 255); font-weight: bold; text-shadow: rgba(0, 0, 0, 0.8) 1px 1px 2px;">Localization and Decomposition of Ideals</text><text transform="rotate(-37.3972602739726) translate(300,0) rotate(0)" dy="0.35em" text-anchor="middle" font-size="9.5625px" style="pointer-events: none; fill: rgb(255, 255, 255); font-weight: bold; text-shadow: rgba(0, 0, 0, 0.8) 1px 1px 2px;"><tspan x="0" dy="0">Integral Dependence and</tspan><tspan x="0" dy="1.1em">the Nullstellensatz</tspan></text><text transform="rotate(-19.31506849315069) translate(300,0) rotate(0)" dy="0.35em" text-anchor="middle" font-size="8px" style="pointer-events: none; fill: rgb(255, 255, 255); font-weight: bold; text-shadow: rgba(0, 0, 0, 0.8) 1px 1px 2px;">Noetherian rings and Chain Conditions</text><text transform="rotate(-11.095890410958901) translate(300,0) rotate(0)" dy="0.35em" text-anchor="middle" font-size="8px" style="pointer-events: none; fill: rgb(255, 255, 255); font-weight: bold; text-shadow: rgba(0, 0, 0, 0.8) 1px 1px 2px;">Dedekind Domains and DVRs</text><text transform="rotate(2.8767123287671126) translate(300,0) rotate(0)" dy="0.35em" text-anchor="middle" font-size="12.75px" style="pointer-events: none; fill: rgb(255, 255, 255); font-weight: bold; text-shadow: rgba(0, 0, 0, 0.8) 1px 1px 2px;">Tensor Product and Flatness</text><text transform="rotate(15.205479452054774) translate(300,0) rotate(0)" dy="0.35em" text-anchor="middle" font-size="8px" style="pointer-events: none; fill: rgb(255, 255, 255); font-weight: bold; text-shadow: rgba(0, 0, 0, 0.8) 1px 1px 2px;"><tspan x="0" dy="0">Smoothness and the</tspan><tspan x="0" dy="1.1em">Module of Differentials</tspan></text><text transform="rotate(25.8904109589041) translate(300,0) rotate(0)" dy="0.35em" text-anchor="middle" font-size="11.25px" style="pointer-events: none; fill: rgb(255, 255, 255); font-weight: bold; text-shadow: rgba(0, 0, 0, 0.8) 1px 1px 2px;">Heights and Dimensions</text><text transform="rotate(42.32876712328766) translate(300,0) rotate(0)" dy="0.35em" text-anchor="middle" font-size="9.5625px" style="pointer-events: none; fill: rgb(255, 255, 255); font-weight: bold; text-shadow: rgba(0, 0, 0, 0.8) 1px 1px 2px;"><tspan x="0" dy="0">Regular Sequences and</tspan><tspan x="0" dy="1.1em">Regular Local Rings</tspan></text><text transform="rotate(58.76712328767121) translate(300,0) rotate(0)" dy="0.35em" text-anchor="middle" font-size="8px" style="pointer-events: none; fill: rgb(255, 255, 255); font-weight: bold; text-shadow: rgba(0, 0, 0, 0.8) 1px 1px 2px;"><tspan x="0" dy="0">Depth, Cohen-Macaulay Rings</tspan><tspan x="0" dy="1.1em">and Gorenstein rings</tspan></text><text transform="rotate(70.27397260273972) translate(300,0) rotate(0)" dy="0.35em" text-anchor="middle" font-size="8px" style="pointer-events: none; fill: rgb(255, 255, 255); font-weight: bold; text-shadow: rgba(0, 0, 0, 0.8) 1px 1px 2px;">Completions and Hensel's lemma</text><text transform="rotate(80.95890410958904) translate(300,0) rotate(0)" dy="0.35em" text-anchor="middle" font-size="8px" style="pointer-events: none; fill: rgb(255, 255, 255); font-weight: bold; text-shadow: rgba(0, 0, 0, 0.8) 1px 1px 2px;"><tspan x="0" dy="0">Algebraic Number Theory</tspan><tspan x="0" dy="1.1em">and Valuation Theory</tspan></text><text transform="rotate(92.46575342465755) translate(300,0) rotate(180)" dy="0.35em" text-anchor="middle" font-size="8px" style="pointer-events: none; fill: rgb(255, 255, 255); font-weight: bold; text-shadow: rgba(0, 0, 0, 0.8) 1px 1px 2px;"><tspan x="0" dy="0">Algebraic and</tspan><tspan x="0" dy="1.1em">Arithmetic Dynamics</tspan></text><text transform="rotate(99.86301369863017) translate(300,0) rotate(180)" dy="0.35em" text-anchor="middle" font-size="8px" style="pointer-events: none; fill: rgb(255, 255, 255); font-weight: bold; text-shadow: rgba(0, 0, 0, 0.8) 1px 1px 2px;">Homological Methods</text><text transform="rotate(103.15068493150687) translate(300,0) rotate(180)" dy="0.35em" text-anchor="middle" font-size="8px" style="pointer-events: none; fill: rgb(255, 255, 255); font-weight: bold; text-shadow: rgba(0, 0, 0, 0.8) 1px 1px 2px;">Noncommutative Algebras</text><text transform="rotate(106.43835616438355) translate(300,0) rotate(180)" dy="0.35em" text-anchor="middle" font-size="8px" style="pointer-events: none; fill: rgb(255, 255, 255); font-weight: bold; text-shadow: rgba(0, 0, 0, 0.8) 1px 1px 2px;">Linear Algebra</text><text transform="rotate(109.72602739726025) translate(300,0) rotate(180)" dy="0.35em" text-anchor="middle" font-size="8px" style="pointer-events: none; fill: rgb(255, 255, 255); font-weight: bold; text-shadow: rgba(0, 0, 0, 0.8) 1px 1px 2px;">Elementary Number Theory</text><text transform="rotate(120.4109589041096) translate(300,0) rotate(180)" dy="0.35em" text-anchor="middle" font-size="15px" style="pointer-events: none; fill: rgb(255, 255, 255); font-weight: bold; text-shadow: rgba(0, 0, 0, 0.8) 1px 1px 2px;">Field Extensions</text><text transform="rotate(148.35616438356163) translate(300,0) rotate(180)" dy="0.35em" text-anchor="middle" font-size="15px" style="pointer-events: none; fill: rgb(255, 255, 255); font-weight: bold; text-shadow: rgba(0, 0, 0, 0.8) 1px 1px 2px;">Galois theory</text><text transform="rotate(176.3013698630137) translate(300,0) rotate(180)" dy="0.35em" text-anchor="middle" font-size="15px" style="pointer-events: none; fill: rgb(255, 255, 255); font-weight: bold; text-shadow: rgba(0, 0, 0, 0.8) 1px 1px 2px;">Explicit Computations</text><text transform="rotate(189.45205479452056) translate(300,0) rotate(180)" dy="0.35em" text-anchor="middle" font-size="8px" style="pointer-events: none; fill: rgb(255, 255, 255); font-weight: bold; text-shadow: rgba(0, 0, 0, 0.8) 1px 1px 2px;">Basic Axioms and Examples</text><text transform="rotate(197.67123287671234) translate(300,0) rotate(180)" dy="0.35em" text-anchor="middle" font-size="8px" style="pointer-events: none; fill: rgb(255, 255, 255); font-weight: bold; text-shadow: rgba(0, 0, 0, 0.8) 1px 1px 2px;">Subgroups and Quotient groups</text><text transform="rotate(214.1095890410959) translate(300,0) rotate(180)" dy="0.35em" text-anchor="middle" font-size="12.75px" style="pointer-events: none; fill: rgb(255, 255, 255); font-weight: bold; text-shadow: rgba(0, 0, 0, 0.8) 1px 1px 2px;"><tspan x="0" dy="0">Group Actions</tspan><tspan x="0" dy="1.1em">and Sylow theorems</tspan></text><text transform="rotate(228.08219178082192) translate(300,0) rotate(180)" dy="0.35em" text-anchor="middle" font-size="8px" style="pointer-events: none; fill: rgb(255, 255, 255); font-weight: bold; text-shadow: rgba(0, 0, 0, 0.8) 1px 1px 2px;"><tspan x="0" dy="0">p-Groups, Nilpotent Groups</tspan><tspan x="0" dy="1.1em">and Solvable Groups</tspan></text><text transform="rotate(235.47945205479454) translate(300,0) rotate(180)" dy="0.35em" text-anchor="middle" font-size="8px" style="pointer-events: none; fill: rgb(255, 255, 255); font-weight: bold; text-shadow: rgba(0, 0, 0, 0.8) 1px 1px 2px;">Basic Definitions and Examples</text><text transform="rotate(244.52054794520552) translate(300,0) rotate(180)" dy="0.35em" text-anchor="middle" font-size="8px" style="pointer-events: none; fill: rgb(255, 255, 255); font-weight: bold; text-shadow: rgba(0, 0, 0, 0.8) 1px 1px 2px;">PID, ED and UFD</text><text transform="rotate(259.31506849315065) translate(300,0) rotate(180)" dy="0.35em" text-anchor="middle" font-size="15px" style="pointer-events: none; fill: rgb(255, 255, 255); font-weight: bold; text-shadow: rgba(0, 0, 0, 0.8) 1px 1px 2px;">Polynomials</text></g></svg>