<?xml version="1.0" encoding="UTF-8"?>
<svg xmlns="http://www.w3.org/2000/svg" width="800" height="800" viewBox="-400 -400 800 800" style="font-family: sans-serif; font-size: 10px;"><g><path d="M0,-100A100,100,0,0,1,82.162,57.003L0,0Z" fill="#3498DB" stroke="#fff" stroke-width="1"><title>Commutative Algebra
35</title></path><path d="M82.162,57.003A100,100,0,1,1,0,-100L0,0Z" fill="#E67E22" stroke="#fff" stroke-width="1"><title>Abstract Algebra
66</title></path><path d="M0,-200A200,200,0,0,1,195.926,-40.161L97.963,-20.081A100,100,0,0,0,0,-100Z" fill="#9B59B6" stroke="#fff" stroke-width="1"><title>Commutative Algebra / Ideal Theory
22</title></path><path d="M195.926,-40.161A200,200,0,0,1,194.582,46.235L97.291,23.118A100,100,0,0,0,97.963,-20.081Z" fill="#3498DB" stroke="#fff" stroke-width="1"><title>Commutative Algebra / Dimension Theory and Smoothness
7</title></path><path d="M194.582,46.235A200,200,0,0,1,164.324,114.006L82.162,57.003A100,100,0,0,0,97.291,23.118Z" fill="#27AE60" stroke="#fff" stroke-width="1"><title>Commutative Algebra / Other Topics
6</title></path><path d="M164.324,114.006A200,200,0,0,1,131.186,150.965L65.593,75.482A100,100,0,0,0,82.162,57.003Z" fill="#B4DC0D" stroke="#fff" stroke-width="1"><title>Abstract Algebra / Other Topics
4</title></path><path d="M131.186,150.965A200,200,0,0,1,-194.582,46.235L-97.291,23.118A100,100,0,0,0,65.593,75.482Z" fill="#F1C40F" stroke="#fff" stroke-width="1"><title>Abstract Algebra / Field Theory
33</title></path><path d="M-194.582,46.235A200,200,0,0,1,-126.427,-154.971L-63.214,-77.486A100,100,0,0,0,-97.291,23.118Z" fill="#F39C12" stroke="#fff" stroke-width="1"><title>Abstract Algebra / Group Theory
18</title></path><path d="M-126.427,-154.971A200,200,0,0,1,0,-200L0,-100A100,100,0,0,0,-63.214,-77.486Z" fill="#E74C3C" stroke="#fff" stroke-width="1"><title>Abstract Algebra / Ring Theory
11</title></path><path d="M0,-400A400,400,0,0,1,122.423,-380.805L61.211,-190.403A200,200,0,0,0,0,-200Z" fill="#744389" stroke="#fff" stroke-width="1"><title>Commutative Algebra / Ideal Theory / Ideals and Modules
5</title></path><path d="M122.423,-380.805A400,400,0,0,1,190.955,-351.477L95.477,-175.739A200,200,0,0,0,61.211,-190.403Z" fill="#814a97" stroke="#fff" stroke-width="1"><title>Commutative Algebra / Ideal Theory / Localization and Decomposition of Ideals
3</title></path><path d="M190.955,-351.477A400,400,0,0,1,321.399,-238.124L160.699,-119.062A200,200,0,0,0,95.477,-175.739Z" fill="#8d51a6" stroke="#fff" stroke-width="1"><title>Commutative Algebra / Ideal Theory / Integral Dependence and the Nullstellensatz
7</title></path><path d="M321.399,-238.124A400,400,0,0,1,335.581,-217.682L167.791,-108.841A200,200,0,0,0,160.699,-119.062Z" fill="#9958b4" stroke="#fff" stroke-width="1"><title>Commutative Algebra / Ideal Theory / Noetherian rings and Chain Conditions
1</title></path><path d="M335.581,-217.682A400,400,0,0,1,378.855,-128.33L189.428,-64.165A200,200,0,0,0,167.791,-108.841Z" fill="#a65fc3" stroke="#fff" stroke-width="1"><title>Commutative Algebra / Ideal Theory / Dedekind Domains and DVRs
4</title></path><path d="M378.855,-128.33A400,400,0,0,1,391.852,-80.323L195.926,-40.161A200,200,0,0,0,189.428,-64.165Z" fill="#b266d1" stroke="#fff" stroke-width="1"><title>Commutative Algebra / Ideal Theory / Tensor Product and Flatness
2</title></path><path d="M391.852,-80.323A400,400,0,0,1,398.791,-31.074L199.396,-15.537A200,200,0,0,0,195.926,-40.161Z" fill="#2772a4" stroke="#fff" stroke-width="1"><title>Commutative Algebra / Dimension Theory and Smoothness / Heights and Dimensions
2</title></path><path d="M398.791,-31.074A400,400,0,0,1,389.165,92.471L194.582,46.235A200,200,0,0,0,199.396,-15.537Z" fill="#2b7eb6" stroke="#fff" stroke-width="1"><title>Commutative Algebra / Dimension Theory and Smoothness / Regular Sequences and Regular Local Rings
5</title></path><path d="M389.165,92.471A400,400,0,0,1,382.663,116.486L191.332,58.243A200,200,0,0,0,194.582,46.235Z" fill="#1d8348" stroke="#fff" stroke-width="1"><title>Commutative Algebra / Other Topics / Completions and Hensel's lemma
1</title></path><path d="M382.663,116.486A400,400,0,0,1,328.649,228.013L164.324,114.006A200,200,0,0,0,191.332,58.243Z" fill="#209050" stroke="#fff" stroke-width="1"><title>Commutative Algebra / Other Topics / Algebraic Number Theory and Valuation Theory
5</title></path><path d="M328.649,228.013A400,400,0,0,1,280.635,285.034L140.317,142.517A200,200,0,0,0,164.324,114.006Z" fill="#87a50a" stroke="#fff" stroke-width="1"><title>Abstract Algebra / Other Topics / Linear Algebra
3</title></path><path d="M280.635,285.034A400,400,0,0,1,262.371,301.929L131.186,150.965A200,200,0,0,0,140.317,142.517Z" fill="#95b70b" stroke="#fff" stroke-width="1"><title>Abstract Algebra / Other Topics / Elementary Number Theory
1</title></path><path d="M262.371,301.929A400,400,0,0,1,12.44,399.807L6.22,199.903A200,200,0,0,0,131.186,150.965Z" fill="#b5930b" stroke="#fff" stroke-width="1"><title>Abstract Algebra / Field Theory / Field Extensions
11</title></path><path d="M12.44,399.807A400,400,0,0,1,-243.093,317.657L-121.547,158.828A200,200,0,0,0,6.22,199.903Z" fill="#c8a30c" stroke="#fff" stroke-width="1"><title>Abstract Algebra / Field Theory / Galois theory
11</title></path><path d="M-243.093,317.657A400,400,0,0,1,-389.165,92.471L-194.582,46.235A200,200,0,0,0,-121.547,158.828Z" fill="#dbb20e" stroke="#fff" stroke-width="1"><title>Abstract Algebra / Field Theory / Explicit Computations
11</title></path><path d="M-389.165,92.471A400,400,0,0,1,-399.952,-6.221L-199.976,-3.11A200,200,0,0,0,-194.582,46.235Z" fill="#b6750e" stroke="#fff" stroke-width="1"><title>Abstract Algebra / Group Theory / Basic Axioms and Examples
4</title></path><path d="M-399.952,-6.221A400,400,0,0,1,-391.852,-80.323L-195.926,-40.161A200,200,0,0,0,-199.976,-3.11Z" fill="#ca810f" stroke="#fff" stroke-width="1"><title>Abstract Algebra / Group Theory / Subgroups and Quotient groups
3</title></path><path d="M-391.852,-80.323A400,400,0,0,1,-289.363,-276.168L-144.682,-138.084A200,200,0,0,0,-195.926,-40.161Z" fill="#dd8e10" stroke="#fff" stroke-width="1"><title>Abstract Algebra / Group Theory / Group Actions and Sylow theorems
9</title></path><path d="M-289.363,-276.168A400,400,0,0,1,-252.855,-309.943L-126.427,-154.971A200,200,0,0,0,-144.682,-138.084Z" fill="#f19a12" stroke="#fff" stroke-width="1"><title>Abstract Algebra / Group Theory / p-Groups, Nilpotent Groups and Solvable Groups
2</title></path><path d="M-252.855,-309.943A400,400,0,0,1,-212.436,-338.926L-106.218,-169.463A200,200,0,0,0,-126.427,-154.971Z" fill="#ad392d" stroke="#fff" stroke-width="1"><title>Abstract Algebra / Ring Theory / Basic Definitions and Examples
2</title></path><path d="M-212.436,-338.926A400,400,0,0,1,-190.955,-351.477L-95.477,-175.739A200,200,0,0,0,-106.218,-169.463Z" fill="#c03f32" stroke="#fff" stroke-width="1"><title>Abstract Algebra / Ring Theory / PID, ED and UFD
1</title></path><path d="M-190.955,-351.477A400,400,0,0,1,0,-400L0,-200A200,200,0,0,0,-95.477,-175.739Z" fill="#d24537" stroke="#fff" stroke-width="1"><title>Abstract Algebra / Ring Theory / Polynomials
8</title></path><text transform="rotate(-27.62376237623763) translate(50,0) rotate(90)" dy="0.35em" text-anchor="middle" font-size="16px" style="pointer-events: none; fill: rgb(255, 255, 255); font-weight: bold; text-shadow: rgba(0, 0, 0, 0.8) 1px 1px 2px;"><tspan x="0" dy="0">Commutative</tspan><tspan x="0" dy="1.2em">Algebra</tspan></text><text transform="rotate(152.3762376237624) translate(50,0) rotate(270)" dy="0.35em" text-anchor="middle" font-size="16px" style="pointer-events: none; fill: rgb(255, 255, 255); font-weight: bold; text-shadow: rgba(0, 0, 0, 0.8) 1px 1px 2px;"><tspan x="0" dy="0">Abstract</tspan><tspan x="0" dy="1.2em">Algebra</tspan></text><text transform="rotate(-50.79207920792079) translate(150,0) rotate(90)" dy="0.35em" text-anchor="middle" font-size="14px" style="pointer-events: none; fill: rgb(255, 255, 255); font-weight: bold; text-shadow: rgba(0, 0, 0, 0.8) 1px 1px 2px;">Ideal Theory</text><text transform="rotate(0.8910891089108901) translate(150,0) rotate(0)" dy="0.35em" text-anchor="middle" font-size="10px" style="pointer-events: none; fill: rgb(255, 255, 255); font-weight: bold; text-shadow: rgba(0, 0, 0, 0.8) 1px 1px 2px;"><tspan x="0" dy="0">Dimension Theory</tspan><tspan x="0" dy="1.2em">and Smoothness</tspan></text><text transform="rotate(24.05940594059406) translate(150,0) rotate(0)" dy="0.35em" text-anchor="middle" font-size="14px" style="pointer-events: none; fill: rgb(255, 255, 255); font-weight: bold; text-shadow: rgba(0, 0, 0, 0.8) 1px 1px 2px;">Other Topics</text><text transform="rotate(41.88118811881188) translate(150,0) rotate(0)" dy="0.35em" text-anchor="middle" font-size="13.5px" style="pointer-events: none; fill: rgb(255, 255, 255); font-weight: bold; text-shadow: rgba(0, 0, 0, 0.8) 1px 1px 2px;">Other Topics</text><text transform="rotate(107.8217821782178) translate(150,0) rotate(270)" dy="0.35em" text-anchor="middle" font-size="14px" style="pointer-events: none; fill: rgb(255, 255, 255); font-weight: bold; text-shadow: rgba(0, 0, 0, 0.8) 1px 1px 2px;">Field Theory</text><text transform="rotate(198.71287128712868) translate(150,0) rotate(90)" dy="0.35em" text-anchor="middle" font-size="14px" style="pointer-events: none; fill: rgb(255, 255, 255); font-weight: bold; text-shadow: rgba(0, 0, 0, 0.8) 1px 1px 2px;">Group Theory</text><text transform="rotate(250.3960396039604) translate(150,0) rotate(90)" dy="0.35em" text-anchor="middle" font-size="14px" style="pointer-events: none; fill: rgb(255, 255, 255); font-weight: bold; text-shadow: rgba(0, 0, 0, 0.8) 1px 1px 2px;">Ring Theory</text><text transform="rotate(-81.08910891089108) translate(300,0) rotate(0)" dy="0.35em" text-anchor="middle" font-size="15px" style="pointer-events: none; fill: rgb(255, 255, 255); font-weight: bold; text-shadow: rgba(0, 0, 0, 0.8) 1px 1px 2px;">Ideals and Modules</text><text transform="rotate(-66.83168316831683) translate(300,0) rotate(0)" dy="0.35em" text-anchor="middle" font-size="8px" style="pointer-events: none; fill: rgb(255, 255, 255); font-weight: bold; text-shadow: rgba(0, 0, 0, 0.8) 1px 1px 2px;">Localization and Decomposition of Ideals</text><text transform="rotate(-49.00990099009902) translate(300,0) rotate(0)" dy="0.35em" text-anchor="middle" font-size="9.5625px" style="pointer-events: none; fill: rgb(255, 255, 255); font-weight: bold; text-shadow: rgba(0, 0, 0, 0.8) 1px 1px 2px;"><tspan x="0" dy="0">Integral Dependence and</tspan><tspan x="0" dy="1.1em">the Nullstellensatz</tspan></text><text transform="rotate(-34.752475247524764) translate(300,0) rotate(0)" dy="0.35em" text-anchor="middle" font-size="8px" style="pointer-events: none; fill: rgb(255, 255, 255); font-weight: bold; text-shadow: rgba(0, 0, 0, 0.8) 1px 1px 2px;">Noetherian rings and Chain Conditions</text><text transform="rotate(-25.841584158415856) translate(300,0) rotate(0)" dy="0.35em" text-anchor="middle" font-size="11.25px" style="pointer-events: none; fill: rgb(255, 255, 255); font-weight: bold; text-shadow: rgba(0, 0, 0, 0.8) 1px 1px 2px;">Dedekind Domains and DVRs</text><text transform="rotate(-15.148514851485146) translate(300,0) rotate(0)" dy="0.35em" text-anchor="middle" font-size="8px" style="pointer-events: none; fill: rgb(255, 255, 255); font-weight: bold; text-shadow: rgba(0, 0, 0, 0.8) 1px 1px 2px;">Tensor Product and Flatness</text><text transform="rotate(-8.01980198019804) translate(300,0) rotate(0)" dy="0.35em" text-anchor="middle" font-size="8px" style="pointer-events: none; fill: rgb(255, 255, 255); font-weight: bold; text-shadow: rgba(0, 0, 0, 0.8) 1px 1px 2px;">Heights and Dimensions</text><text transform="rotate(4.455445544554465) translate(300,0) rotate(0)" dy="0.35em" text-anchor="middle" font-size="9.5625px" style="pointer-events: none; fill: rgb(255, 255, 255); font-weight: bold; text-shadow: rgba(0, 0, 0, 0.8) 1px 1px 2px;"><tspan x="0" dy="0">Regular Sequences and</tspan><tspan x="0" dy="1.1em">Regular Local Rings</tspan></text><text transform="rotate(15.148514851485146) translate(300,0) rotate(0)" dy="0.35em" text-anchor="middle" font-size="8px" style="pointer-events: none; fill: rgb(255, 255, 255); font-weight: bold; text-shadow: rgba(0, 0, 0, 0.8) 1px 1px 2px;">Completions and Hensel's lemma</text><text transform="rotate(25.841584158415856) translate(300,0) rotate(0)" dy="0.35em" text-anchor="middle" font-size="9.5625px" style="pointer-events: none; fill: rgb(255, 255, 255); font-weight: bold; text-shadow: rgba(0, 0, 0, 0.8) 1px 1px 2px;"><tspan x="0" dy="0">Algebraic Number Theory</tspan><tspan x="0" dy="1.1em">and Valuation Theory</tspan></text><text transform="rotate(40.0990099009901) translate(300,0) rotate(0)" dy="0.35em" text-anchor="middle" font-size="11.25px" style="pointer-events: none; fill: rgb(255, 255, 255); font-weight: bold; text-shadow: rgba(0, 0, 0, 0.8) 1px 1px 2px;">Linear Algebra</text><text transform="rotate(47.22772277227722) translate(300,0) rotate(0)" dy="0.35em" text-anchor="middle" font-size="8px" style="pointer-events: none; fill: rgb(255, 255, 255); font-weight: bold; text-shadow: rgba(0, 0, 0, 0.8) 1px 1px 2px;">Elementary Number Theory</text><text transform="rotate(68.61386138613861) translate(300,0) rotate(0)" dy="0.35em" text-anchor="middle" font-size="15px" style="pointer-events: none; fill: rgb(255, 255, 255); font-weight: bold; text-shadow: rgba(0, 0, 0, 0.8) 1px 1px 2px;">Field Extensions</text><text transform="rotate(107.8217821782178) translate(300,0) rotate(180)" dy="0.35em" text-anchor="middle" font-size="15px" style="pointer-events: none; fill: rgb(255, 255, 255); font-weight: bold; text-shadow: rgba(0, 0, 0, 0.8) 1px 1px 2px;">Galois theory</text><text transform="rotate(147.029702970297) translate(300,0) rotate(180)" dy="0.35em" text-anchor="middle" font-size="15px" style="pointer-events: none; fill: rgb(255, 255, 255); font-weight: bold; text-shadow: rgba(0, 0, 0, 0.8) 1px 1px 2px;">Explicit Computations</text><text transform="rotate(173.76237623762376) translate(300,0) rotate(180)" dy="0.35em" text-anchor="middle" font-size="11.25px" style="pointer-events: none; fill: rgb(255, 255, 255); font-weight: bold; text-shadow: rgba(0, 0, 0, 0.8) 1px 1px 2px;">Basic Axioms and Examples</text><text transform="rotate(186.2376237623762) translate(300,0) rotate(180)" dy="0.35em" text-anchor="middle" font-size="9.5625px" style="pointer-events: none; fill: rgb(255, 255, 255); font-weight: bold; text-shadow: rgba(0, 0, 0, 0.8) 1px 1px 2px;">Subgroups and Quotient groups</text><text transform="rotate(207.6237623762376) translate(300,0) rotate(180)" dy="0.35em" text-anchor="middle" font-size="12.75px" style="pointer-events: none; fill: rgb(255, 255, 255); font-weight: bold; text-shadow: rgba(0, 0, 0, 0.8) 1px 1px 2px;"><tspan x="0" dy="0">Group Actions</tspan><tspan x="0" dy="1.1em">and Sylow theorems</tspan></text><text transform="rotate(227.22772277227722) translate(300,0) rotate(180)" dy="0.35em" text-anchor="middle" font-size="8px" style="pointer-events: none; fill: rgb(255, 255, 255); font-weight: bold; text-shadow: rgba(0, 0, 0, 0.8) 1px 1px 2px;"><tspan x="0" dy="0">p-Groups, Nilpotent Groups</tspan><tspan x="0" dy="1.1em">and Solvable Groups</tspan></text><text transform="rotate(234.3564356435644) translate(300,0) rotate(180)" dy="0.35em" text-anchor="middle" font-size="8px" style="pointer-events: none; fill: rgb(255, 255, 255); font-weight: bold; text-shadow: rgba(0, 0, 0, 0.8) 1px 1px 2px;">Basic Definitions and Examples</text><text transform="rotate(239.7029702970297) translate(300,0) rotate(180)" dy="0.35em" text-anchor="middle" font-size="8px" style="pointer-events: none; fill: rgb(255, 255, 255); font-weight: bold; text-shadow: rgba(0, 0, 0, 0.8) 1px 1px 2px;">PID, ED and UFD</text><text transform="rotate(255.74257425742582) translate(300,0) rotate(180)" dy="0.35em" text-anchor="middle" font-size="15px" style="pointer-events: none; fill: rgb(255, 255, 255); font-weight: bold; text-shadow: rgba(0, 0, 0, 0.8) 1px 1px 2px;">Polynomials</text></g></svg>